<svg width="8" height="8" viewBox="0 0 8 8" fill="none" xmlns="http://www.w3.org/2000/svg">
<path fill-rule="evenodd" clip-rule="evenodd" d="M1.0625 0.9375C1.0625 0.523286 1.39829 0.1875 1.8125 0.1875H7.0625C7.47671 0.1875 7.8125 0.523286 7.8125 0.9375V6.1875C7.8125 6.60171 7.47671 6.9375 7.0625 6.9375C6.64829 6.9375 6.3125 6.60171 6.3125 6.1875V1.6875H1.8125C1.39829 1.6875 1.0625 1.35171 1.0625 0.9375Z" fill="white"/>
<path fill-rule="evenodd" clip-rule="evenodd" d="M7.59283 0.40717C7.88572 0.700063 7.88572 1.17494 7.59283 1.46783L1.46783 7.59283C1.17494 7.88572 0.700063 7.88572 0.40717 7.59283C0.114277 7.29994 0.114277 6.82506 0.40717 6.53217L6.53217 0.40717C6.82506 0.114277 7.29994 0.114277 7.59283 0.40717Z" fill="white"/>
</svg>
