<?xml version="1.0" standalone="no"?>
<!DOCTYPE svg PUBLIC "-//W3C//DTD SVG 20010904//EN"
 "http://www.w3.org/TR/2001/REC-SVG-20010904/DTD/svg10.dtd">
<svg version="1.0" xmlns="http://www.w3.org/2000/svg"
 width="900.000000pt" height="900.000000pt" viewBox="0 0 900.000000 900.000000"
 preserveAspectRatio="xMidYMid meet">

<g transform="translate(0.000000,900.000000) scale(0.100000,-0.100000)"
fill="#000000" stroke="none">
<path d="M390 8989 c-83 -14 -192 -70 -250 -129 -64 -64 -115 -169 -131 -270
-26 -170 18 -899 81 -1325 232 -1573 890 -3032 1914 -4245 235 -278 618 -669
880 -898 1367 -1195 3047 -1917 4831 -2076 480 -43 852 -46 959 -7 84 30 135
62 188 119 57 61 84 112 109 209 18 73 19 118 19 987 0 985 -1 990 -54 1096
-37 74 -83 126 -149 171 -111 74 -164 82 -567 94 -189 5 -370 21 -565 50 -345
51 -776 162 -980 253 -133 59 -253 48 -385 -35 -34 -22 -271 -250 -627 -605
l-571 -571 -114 63 c-263 146 -642 388 -883 565 -850 624 -1555 1390 -2059
2233 -84 142 -236 421 -236 434 0 3 181 178 402 389 222 211 454 434 518 495
63 60 141 134 172 163 104 97 170 261 170 421 0 74 -6 104 -47 230 -45 141
-128 458 -159 610 -56 271 -94 609 -106 935 -10 268 -20 330 -67 417 -53 98
-133 162 -263 212 -55 21 -63 21 -1015 22 -545 1 -984 -2 -1015 -7z"/>
</g>
</svg>
