<?xml version="1.0" standalone="no"?>
<!DOCTYPE svg PUBLIC "-//W3C//DTD SVG 20010904//EN"
 "http://www.w3.org/TR/2001/REC-SVG-20010904/DTD/svg10.dtd">
<svg version="1.0" xmlns="http://www.w3.org/2000/svg"
 width="626.000000pt" height="626.000000pt" viewBox="0 0 626.000000 626.000000"
 preserveAspectRatio="xMidYMid meet">

<g transform="translate(0.000000,626.000000) scale(0.100000,-0.100000)"
fill="#000000" stroke="none">
<path d="M1685 5206 c-58 -26 -97 -68 -117 -123 -19 -56 -19 -3850 0 -3906 20
-55 59 -97 117 -123 l50 -24 1395 0 1395 0 50 24 c58 26 97 68 117 123 11 31
13 382 13 1963 l0 1925 -22 40 c-27 51 -57 79 -113 104 -45 20 -57 21 -1440
21 l-1395 0 -50 -24z m2421 -321 c78 -24 143 -80 184 -159 l35 -69 0 -211 c0
-178 -3 -219 -18 -263 -23 -66 -80 -131 -148 -168 l-54 -30 -975 0 -975 0 -41
22 c-94 50 -144 114 -170 215 -13 48 -15 102 -13 248 l4 187 35 69 c40 77 105
135 180 159 69 21 1884 22 1956 0z m-1531 -1590 l0 -280 -280 0 -280 0 -3 269
c-2 191 1 273 9 282 10 12 61 14 283 12 l271 -3 0 -280z m833 -3 l2 -282 -277
2 -278 3 -3 270 c-1 148 0 275 3 283 3 10 63 12 277 10 l273 -3 3 -283z m831
274 c8 -9 11 -92 9 -282 l-3 -269 -280 0 -280 0 -3 274 c-2 213 1 276 10 283
7 4 131 8 274 8 210 0 264 -3 273 -14z m-1661 -1105 c2 -213 -1 -277 -10 -283
-17 -11 -518 -8 -540 4 -17 8 -18 32 -18 277 0 147 3 271 7 274 4 4 131 6 282
5 l276 -3 3 -274z m832 0 c0 -215 -3 -280 -12 -282 -7 -2 -133 -3 -280 -1
l-268 3 0 279 0 280 280 0 280 0 0 -279z m838 4 c2 -245 1 -271 -15 -282 -12
-10 -83 -13 -269 -13 -139 0 -259 3 -268 6 -14 5 -16 39 -16 278 0 150 3 276
7 279 4 4 131 6 282 5 l276 -3 3 -270z m-1673 -840 l0 -280 -274 -3 c-213 -2
-276 1 -283 10 -9 16 -11 542 -1 551 4 4 131 6 282 5 l276 -3 0 -280z m830 0
l0 -280 -275 0 -275 0 -3 270 c-1 148 0 275 3 283 3 10 63 12 277 10 l273 -3
0 -280z m843 11 c2 -191 -1 -273 -9 -282 -10 -12 -61 -14 -283 -12 l-271 3 -3
270 c-1 148 0 275 3 283 3 10 64 12 282 10 l278 -3 3 -269z"/>
</g>
</svg>
