<?xml version="1.0" standalone="no"?>
<!DOCTYPE svg PUBLIC "-//W3C//DTD SVG 20010904//EN"
 "http://www.w3.org/TR/2001/REC-SVG-20010904/DTD/svg10.dtd">
<svg version="1.0" xmlns="http://www.w3.org/2000/svg"
 width="225.000000pt" height="225.000000pt" viewBox="0 0 225.000000 225.000000"
 preserveAspectRatio="xMidYMid meet">

<g transform="translate(0.000000,225.000000) scale(0.100000,-0.100000)"
fill="#000000" stroke="none">
<path d="M860 1594 c-19 -8 -81 -45 -137 -82 l-103 -67 0 -292 0 -293 36 0
c32 0 50 -13 165 -117 71 -65 144 -124 161 -131 55 -23 122 4 155 63 10 17 13
16 52 -15 66 -53 150 -44 190 20 12 21 21 26 31 19 8 -5 34 -9 58 -9 84 0 149
101 110 173 -7 15 -96 103 -197 196 l-183 170 -83 -64 c-47 -35 -102 -69 -123
-75 -151 -40 -281 122 -212 264 14 29 55 70 142 140 103 84 119 101 102 107
-33 13 -127 9 -164 -7z"/>
<path d="M1189 1583 c-60 -31 -323 -243 -333 -268 -23 -62 11 -130 71 -141 47
-9 58 -3 222 125 71 56 138 101 149 101 51 0 53 -61 3 -95 l-30 -21 156 -144
c87 -80 167 -153 180 -163 l23 -18 0 243 0 243 -111 70 c-61 39 -125 75 -143
82 -57 21 -128 16 -187 -14z"/>
<path d="M302 1428 c-9 -9 -12 -92 -12 -310 l0 -299 25 -24 c21 -22 33 -25 94
-25 59 0 74 4 98 24 l28 24 3 311 3 311 -114 0 c-74 0 -117 -4 -125 -12z m145
-514 c12 -19 11 -24 -6 -45 -16 -21 -22 -22 -45 -11 -17 8 -26 19 -26 35 0 48
50 62 77 21z"/>
<path d="M1720 1134 l0 -306 29 -29 c27 -27 35 -29 101 -29 62 0 74 3 95 25
l25 24 0 299 c0 218 -3 301 -12 310 -8 8 -50 12 -125 12 l-113 0 0 -306z m154
-210 c9 -8 16 -22 16 -29 0 -16 -27 -45 -42 -45 -15 0 -48 30 -48 43 0 15 31
47 46 47 7 0 20 -7 28 -16z"/>
</g>
</svg>
