<?xml version="1.0" standalone="no"?>
<!DOCTYPE svg PUBLIC "-//W3C//DTD SVG 20010904//EN"
 "http://www.w3.org/TR/2001/REC-SVG-20010904/DTD/svg10.dtd">
<svg version="1.0" xmlns="http://www.w3.org/2000/svg"
 width="210.000000pt" height="210.000000pt" viewBox="0 0 210.000000 210.000000"
 preserveAspectRatio="xMidYMid meet">

<g transform="translate(0.000000,210.000000) scale(0.100000,-0.100000)"
fill="#000000" stroke="none">
<path d="M394 1696 l-34 -34 0 -617 0 -617 34 -34 34 -34 622 0 622 0 34 34
34 34 0 617 0 617 -34 34 -34 34 -622 0 -622 0 -34 -34z m1157 -264 c60 -60
78 -99 63 -138 -5 -12 -108 -124 -229 -247 l-221 -225 -77 -7 c-138 -13 -155
3 -139 135 l10 84 229 228 c219 219 230 228 268 228 33 0 46 -7 96 -58z m-335
-54 c4 -6 -8 -25 -29 -45 l-37 -33 -195 0 -195 0 0 -285 0 -285 285 0 285 0 0
94 c0 87 2 97 26 125 48 58 54 46 54 -109 0 -136 -1 -142 -25 -165 l-24 -25
-316 0 -316 0 -24 25 -25 24 0 313 c0 338 1 347 54 368 34 14 473 12 482 -2z"/>
<path d="M1422 1387 c-12 -13 -22 -28 -22 -33 0 -5 19 -29 43 -52 l43 -42 29
30 29 30 -44 45 c-24 25 -47 45 -50 45 -4 0 -16 -10 -28 -23z"/>
<path d="M1186 1151 c-147 -148 -150 -150 -156 -203 -4 -29 -6 -54 -5 -56 2
-2 25 0 53 4 48 6 54 11 201 158 l151 151 -48 48 -47 47 -149 -149z"/>
</g>
</svg>
