<?xml version="1.0" standalone="no"?>
<!DOCTYPE svg PUBLIC "-//W3C//DTD SVG 20010904//EN"
 "http://www.w3.org/TR/2001/REC-SVG-20010904/DTD/svg10.dtd">
<svg version="1.0" xmlns="http://www.w3.org/2000/svg"
 width="512.000000pt" height="512.000000pt" viewBox="0 0 512.000000 512.000000"
 preserveAspectRatio="xMidYMid meet">

<g transform="translate(0.000000,512.000000) scale(0.100000,-0.100000)"
fill="#000000" stroke="none">
<path d="M0 2560 l0 -2560 2560 0 2560 0 0 2560 0 2560 -2560 0 -2560 0 0
-2560z m3609 2000 c189 -20 400 -88 476 -154 30 -25 38 -39 37 -65 0 -18 -6
-39 -12 -46 -6 -8 -182 -109 -391 -225 l-379 -212 0 -272 0 -271 239 -128
c131 -70 244 -127 251 -127 8 0 104 53 214 119 405 239 499 287 539 272 40
-16 50 -45 44 -130 -6 -85 -50 -229 -102 -331 -151 -296 -454 -524 -795 -596
-114 -24 -333 -24 -451 -1 -273 54 -505 196 -682 417 -151 189 -227 408 -227
655 0 305 102 550 320 766 201 200 440 309 725 332 82 7 95 7 194 -3z m-1173
-1798 c67 -94 235 -258 329 -320 44 -29 119 -72 168 -95 48 -23 86 -45 85 -49
-2 -3 -394 -384 -873 -847 -561 -542 -887 -850 -917 -866 -92 -50 -217 -51
-313 -3 -63 33 -383 353 -411 413 -34 71 -33 179 1 253 28 60 -49 -16 1050
1045 l740 714 47 -89 c26 -50 69 -120 94 -156z"/>
<path d="M1154 1411 c-75 -46 -100 -122 -64 -196 50 -104 178 -124 259 -41 72
74 52 192 -40 238 -45 24 -116 23 -155 -1z"/>
</g>
</svg>
