<?xml version="1.0" standalone="no"?>
<!DOCTYPE svg PUBLIC "-//W3C//DTD SVG 20010904//EN"
 "http://www.w3.org/TR/2001/REC-SVG-20010904/DTD/svg10.dtd">
<svg version="1.0" xmlns="http://www.w3.org/2000/svg"
 width="245.000000pt" height="206.000000pt" viewBox="0 0 245.000000 206.000000"
 preserveAspectRatio="xMidYMid meet">

<g transform="translate(0.000000,206.000000) scale(0.100000,-0.100000)"
fill="#000000" stroke="none">
<path d="M0 1030 l0 -1030 1225 0 1225 0 0 1030 0 1030 -1225 0 -1225 0 0
-1030z m1373 995 c34 -7 35 -9 42 -60 5 -47 10 -56 45 -80 37 -26 43 -27 84
-16 25 6 46 11 48 11 2 0 14 -20 27 -44 l24 -44 -29 -38 c-26 -34 -30 -46 -26
-86 4 -44 7 -49 48 -73 24 -14 44 -28 44 -31 0 -3 -5 -25 -11 -49 -11 -44 -28
-54 -93 -55 -13 -1 -31 -16 -49 -41 -25 -36 -27 -44 -17 -77 15 -55 14 -58
-32 -85 l-42 -25 -38 33 c-37 31 -39 32 -88 21 -41 -9 -54 -18 -71 -46 -12
-19 -23 -37 -25 -39 -1 -2 -26 2 -53 9 l-51 12 0 47 c0 44 -3 49 -45 79 -39
27 -48 30 -77 21 -52 -15 -62 -11 -86 32 l-24 41 31 38 c27 34 30 43 24 87 -5
45 -9 52 -48 76 l-43 25 12 49 12 48 50 3 c45 3 52 7 78 45 27 38 28 44 18 86
-12 51 -8 58 43 85 l36 19 32 -31 c30 -30 36 -31 85 -25 48 5 53 9 78 50 16
27 31 42 39 39 8 -3 29 -8 48 -11z m501 -608 c6 -36 12 -45 45 -61 30 -14 43
-16 59 -7 32 17 47 13 71 -20 l23 -31 -21 -29 c-17 -23 -20 -37 -15 -69 6 -34
13 -44 44 -60 35 -18 37 -21 31 -57 -6 -35 -10 -39 -46 -46 -33 -7 -44 -16
-58 -46 -14 -29 -16 -42 -8 -65 15 -39 14 -42 -20 -67 l-31 -22 -29 22 c-23
17 -37 20 -69 15 -36 -6 -43 -12 -57 -46 -13 -33 -20 -39 -37 -34 -12 3 -31 6
-42 6 -17 0 -23 8 -28 39 -8 51 -59 87 -101 71 -40 -15 -49 -13 -74 20 l-22
31 21 29 c16 23 19 37 14 70 -6 34 -13 44 -44 60 -35 18 -37 21 -31 57 6 35
10 39 48 47 34 7 44 15 58 45 12 29 14 43 6 65 -15 38 -15 39 20 65 l31 23 29
-21 c23 -17 37 -20 69 -15 34 6 44 13 60 43 17 34 21 36 58 33 38 -4 40 -6 46
-45z m-803 -188 c13 -42 28 -73 38 -76 9 -3 40 -16 69 -29 l53 -24 68 35 68
34 53 -54 54 -55 -32 -67 -33 -68 29 -69 28 -70 72 -24 72 -24 0 -77 0 -77
-74 -24 c-62 -19 -76 -27 -81 -48 -3 -13 -16 -45 -27 -70 l-22 -45 32 -61 c18
-34 32 -65 32 -71 0 -13 -92 -105 -105 -105 -6 0 -37 14 -68 31 l-57 30 -64
-25 c-35 -14 -69 -26 -74 -26 -5 0 -19 -34 -31 -75 l-23 -75 -79 0 -78 0 -22
75 c-13 44 -27 75 -35 75 -8 0 -39 12 -71 26 l-58 25 -68 -32 -67 -33 -55 54
-55 54 35 64 36 64 -26 63 c-14 35 -25 67 -25 72 0 5 -34 20 -75 33 l-76 24 3
79 3 79 68 22 68 21 30 70 30 70 -33 68 -32 67 54 55 53 54 68 -34 68 -35 53
24 c29 13 60 26 68 29 8 2 26 37 38 76 l23 71 79 0 79 0 22 -71z"/>
<path d="M1215 1831 c-106 -27 -168 -107 -169 -218 0 -85 37 -146 114 -186 47
-25 64 -28 117 -25 50 3 72 10 105 34 106 74 127 220 46 318 -50 61 -142 95
-213 77z"/>
<path d="M1704 1286 c-17 -8 -44 -31 -60 -52 -25 -33 -29 -46 -29 -105 0 -75
16 -106 75 -146 25 -17 47 -23 90 -23 43 0 65 6 90 23 59 40 75 71 75 146 0
59 -4 72 -29 105 -16 21 -44 44 -62 52 -42 18 -109 17 -150 0z"/>
<path d="M909 990 c-96 -17 -185 -82 -234 -172 -24 -44 -30 -68 -33 -138 -5
-114 19 -181 93 -255 73 -72 141 -98 250 -93 95 4 158 30 220 93 114 114 127
306 30 438 -73 98 -203 148 -326 127z"/>
</g>
</svg>
